<?xml version="1.0" standalone="no"?>
<svg xmlns="http://www.w3.org/2000/svg" height="300" width="300" viewBox="0 0 37 37" role="img"><path fill="#ffffff" d="M0,0 h37v37H0z" shape-rendering="crispEdges"/><path fill="#000000" d="M4 4h7v1H4zM12 4h1v1H12zM15 4h2v1H15zM18 4h1v1H18zM22 4h3v1H22zM26,4 h7v1H26zM4 5h1v1H4zM10 5h1v1H10zM12 5h1v1H12zM14 5h2v1H14zM17 5h1v1H17zM22 5h1v1H22zM24 5h1v1H24zM26 5h1v1H26zM32,5 h1v1H32zM4 6h1v1H4zM6 6h3v1H6zM10 6h1v1H10zM13 6h3v1H13zM20 6h1v1H20zM24 6h1v1H24zM26 6h1v1H26zM28 6h3v1H28zM32,6 h1v1H32zM4 7h1v1H4zM6 7h3v1H6zM10 7h1v1H10zM14 7h2v1H14zM18 7h4v1H18zM23 7h1v1H23zM26 7h1v1H26zM28 7h3v1H28zM32,7 h1v1H32zM4 8h1v1H4zM6 8h3v1H6zM10 8h1v1H10zM13 8h1v1H13zM16 8h2v1H16zM19 8h1v1H19zM21 8h4v1H21zM26 8h1v1H26zM28 8h3v1H28zM32,8 h1v1H32zM4 9h1v1H4zM10 9h1v1H10zM15 9h1v1H15zM18 9h1v1H18zM20 9h2v1H20zM26 9h1v1H26zM32,9 h1v1H32zM4 10h7v1H4zM12 10h1v1H12zM14 10h1v1H14zM16 10h1v1H16zM18 10h1v1H18zM20 10h1v1H20zM22 10h1v1H22zM24 10h1v1H24zM26,10 h7v1H26zM13 11h2v1H13zM19 11h4v1H19zM24 11h1v1H24zM5 12h1v1H5zM10 12h3v1H10zM17 12h1v1H17zM23 12h1v1H23zM25 12h1v1H25zM31,12 h2v1H31zM5 13h5v1H5zM11 13h1v1H11zM13 13h1v1H13zM15 13h1v1H15zM17 13h1v1H17zM19 13h5v1H19zM27 13h5v1H27zM4 14h1v1H4zM6 14h1v1H6zM8 14h1v1H8zM10 14h2v1H10zM13 14h2v1H13zM24 14h4v1H24zM9 15h1v1H9zM12 15h2v1H12zM18 15h1v1H18zM20 15h1v1H20zM23 15h2v1H23zM26 15h2v1H26zM29 15h1v1H29zM5 16h2v1H5zM8 16h1v1H8zM10 16h1v1H10zM12 16h3v1H12zM16 16h3v1H16zM20 16h1v1H20zM24 16h3v1H24zM29 16h1v1H29zM31 16h1v1H31zM7 17h1v1H7zM12 17h1v1H12zM14 17h1v1H14zM17 17h1v1H17zM19 17h2v1H19zM23 17h2v1H23zM26 17h1v1H26zM28 17h2v1H28zM32,17 h1v1H32zM7 18h1v1H7zM10 18h2v1H10zM13 18h2v1H13zM18 18h2v1H18zM22 18h1v1H22zM24 18h2v1H24zM27 18h1v1H27zM4 19h2v1H4zM7 19h1v1H7zM11 19h1v1H11zM13 19h1v1H13zM16 19h5v1H16zM23 19h1v1H23zM25 19h2v1H25zM28,19 h5v1H28zM5 20h2v1H5zM10 20h2v1H10zM13 20h3v1H13zM22 20h2v1H22zM25 20h1v1H25zM29,20 h4v1H29zM4 21h2v1H4zM7 21h1v1H7zM9 21h1v1H9zM14 21h3v1H14zM20 21h1v1H20zM23 21h2v1H23zM26 21h4v1H26zM32,21 h1v1H32zM4 22h5v1H4zM10 22h4v1H10zM15 22h4v1H15zM20 22h4v1H20zM27 22h2v1H27zM32,22 h1v1H32zM4 23h1v1H4zM6 23h1v1H6zM13 23h1v1H13zM17 23h1v1H17zM19 23h2v1H19zM22 23h2v1H22zM25 23h2v1H25zM29 23h1v1H29zM31,23 h2v1H31zM4 24h1v1H4zM6 24h1v1H6zM8 24h3v1H8zM14 24h2v1H14zM17 24h2v1H17zM20 24h2v1H20zM24 24h5v1H24zM30,24 h3v1H30zM12 25h4v1H12zM17 25h3v1H17zM21 25h2v1H21zM24 25h1v1H24zM28 25h3v1H28zM4 26h7v1H4zM12 26h1v1H12zM15 26h2v1H15zM18 26h4v1H18zM23 26h2v1H23zM26 26h1v1H26zM28 26h1v1H28zM4 27h1v1H4zM10 27h1v1H10zM14 27h2v1H14zM19 27h1v1H19zM21 27h4v1H21zM28 27h2v1H28zM32,27 h1v1H32zM4 28h1v1H4zM6 28h3v1H6zM10 28h1v1H10zM14 28h1v1H14zM16 28h1v1H16zM19 28h1v1H19zM21 28h1v1H21zM23 28h6v1H23zM31,28 h2v1H31zM4 29h1v1H4zM6 29h3v1H6zM10 29h1v1H10zM13 29h3v1H13zM21 29h4v1H21zM27 29h1v1H27zM29 29h1v1H29zM31 29h1v1H31zM4 30h1v1H4zM6 30h3v1H6zM10 30h1v1H10zM15 30h1v1H15zM17 30h4v1H17zM22 30h8v1H22zM31 30h1v1H31zM4 31h1v1H4zM10 31h1v1H10zM12 31h3v1H12zM16 31h1v1H16zM20 31h1v1H20zM25 31h1v1H25zM28 31h3v1H28zM32,31 h1v1H32zM4 32h7v1H4zM14 32h6v1H14zM21 32h1v1H21zM23 32h1v1H23zM25 32h2v1H25zM28 32h1v1H28zM30 32h1v1H30z" shape-rendering="crispEdges"/></svg>